<svg width="16" height="16" viewBox="0 0 16 16" fill="none" xmlns="http://www.w3.org/2000/svg">
<g clip-path="url(#clip0_5701_194)">
<path fill-rule="evenodd" clip-rule="evenodd" d="M4.97675 0.710626C5.75875 0.674626 6.00808 0.666626 8.00008 0.666626C9.99208 0.666626 10.2414 0.675293 11.0227 0.710626C11.8041 0.745959 12.3374 0.870626 12.8041 1.05129C13.2927 1.23596 13.7361 1.52463 14.1027 1.89796C14.4761 2.26396 14.7641 2.70663 14.9481 3.19596C15.1294 3.66263 15.2534 4.19596 15.2894 4.97596C15.3254 5.75929 15.3334 6.00863 15.3334 7.99996C15.3334 9.99196 15.3247 10.2413 15.2894 11.0233C15.2541 11.8033 15.1294 12.3366 14.9481 12.8033C14.7641 13.2927 14.4756 13.7361 14.1027 14.1026C13.7361 14.476 13.2927 14.764 12.8041 14.948C12.3374 15.1293 11.8041 15.2533 11.0241 15.2893C10.2414 15.3253 9.99208 15.3333 8.00008 15.3333C6.00808 15.3333 5.75875 15.3246 4.97675 15.2893C4.19675 15.254 3.66341 15.1293 3.19675 14.948C2.70736 14.7639 2.26396 14.4755 1.89741 14.1026C1.52433 13.7364 1.23562 13.2932 1.05141 12.804C0.870748 12.3373 0.746748 11.804 0.710748 11.024C0.674748 10.2406 0.666748 9.99129 0.666748 7.99996C0.666748 6.00796 0.675415 5.75863 0.710748 4.97729C0.746081 4.19596 0.870748 3.66263 1.05141 3.19596C1.2359 2.70668 1.52483 2.2635 1.89808 1.89729C2.26411 1.52429 2.70706 1.23559 3.19608 1.05129C3.66275 0.870626 4.19608 0.746626 4.97608 0.710626H4.97675ZM10.9634 2.03063C10.1901 1.99529 9.95808 1.98796 8.00008 1.98796C6.04208 1.98796 5.81008 1.99529 5.03675 2.03063C4.32141 2.06329 3.93341 2.18263 3.67475 2.28329C3.33275 2.41663 3.08808 2.57463 2.83141 2.83129C2.58811 3.06799 2.40087 3.35615 2.28341 3.67463C2.18275 3.93329 2.06341 4.32129 2.03075 5.03663C1.99541 5.80996 1.98808 6.04196 1.98808 7.99996C1.98808 9.95796 1.99541 10.19 2.03075 10.9633C2.06341 11.6786 2.18275 12.0666 2.28341 12.3253C2.40075 12.6433 2.58808 12.932 2.83141 13.1686C3.06808 13.412 3.35675 13.5993 3.67475 13.7166C3.93341 13.8173 4.32141 13.9366 5.03675 13.9693C5.81008 14.0046 6.04141 14.012 8.00008 14.012C9.95875 14.012 10.1901 14.0046 10.9634 13.9693C11.6787 13.9366 12.0667 13.8173 12.3254 13.7166C12.6674 13.5833 12.9121 13.4253 13.1687 13.1686C13.4121 12.932 13.5994 12.6433 13.7167 12.3253C13.8174 12.0666 13.9367 11.6786 13.9694 10.9633C14.0047 10.19 14.0121 9.95796 14.0121 7.99996C14.0121 6.04196 14.0047 5.80996 13.9694 5.03663C13.9367 4.32129 13.8174 3.93329 13.7167 3.67463C13.5834 3.33263 13.4254 3.08796 13.1687 2.83129C12.932 2.58801 12.6439 2.40077 12.3254 2.28329C12.0667 2.18263 11.6787 2.06329 10.9634 2.03063ZM7.06341 10.2606C7.58652 10.4784 8.169 10.5078 8.71137 10.3438C9.25373 10.1798 9.72234 9.83257 10.0372 9.36145C10.352 8.89034 10.4935 8.32454 10.4374 7.7607C10.3814 7.19685 10.1314 6.66994 9.73008 6.26996C9.47424 6.01428 9.16489 5.8185 8.8243 5.69672C8.48372 5.57495 8.12037 5.5302 7.76041 5.5657C7.40046 5.60121 7.05285 5.71608 6.74262 5.90205C6.43238 6.08801 6.16724 6.34046 5.96628 6.64119C5.76532 6.94193 5.63354 7.28348 5.58042 7.64127C5.52731 7.99905 5.55418 8.36415 5.65911 8.7103C5.76403 9.05645 5.9444 9.37503 6.18723 9.64311C6.43005 9.91118 6.7293 10.1221 7.06341 10.2606ZM5.33475 5.33463C5.68476 4.98461 6.10029 4.70696 6.55761 4.51753C7.01493 4.32811 7.50508 4.23061 8.00008 4.23061C8.49508 4.23061 8.98523 4.32811 9.44255 4.51753C9.89987 4.70696 10.3154 4.98461 10.6654 5.33463C11.0154 5.68464 11.2931 6.10017 11.4825 6.55749C11.6719 7.01481 11.7694 7.50496 11.7694 7.99996C11.7694 8.49496 11.6719 8.98511 11.4825 9.44243C11.2931 9.89974 11.0154 10.3153 10.6654 10.6653C9.95852 11.3722 8.99977 11.7693 8.00008 11.7693C7.00039 11.7693 6.04164 11.3722 5.33475 10.6653C4.62786 9.9584 4.23073 8.99965 4.23073 7.99996C4.23073 7.00027 4.62786 6.04152 5.33475 5.33463ZM12.6054 4.79196C12.6922 4.71014 12.7616 4.61175 12.8096 4.50261C12.8576 4.39347 12.8833 4.2758 12.885 4.15658C12.8868 4.03735 12.8646 3.91899 12.8197 3.8085C12.7749 3.69801 12.7084 3.59763 12.6241 3.51332C12.5397 3.429 12.4394 3.36246 12.3289 3.31764C12.2184 3.27281 12.1 3.25061 11.9808 3.25235C11.8616 3.25409 11.7439 3.27973 11.6348 3.32776C11.5256 3.37579 11.4272 3.44522 11.3454 3.53196C11.1863 3.70065 11.0992 3.92471 11.1025 4.15658C11.1059 4.38845 11.1995 4.60988 11.3635 4.77385C11.5275 4.93783 11.7489 5.03144 11.9808 5.03482C12.2127 5.03821 12.4367 4.95109 12.6054 4.79196Z" fill="#0587FF"/>
</g>
<defs>
<clipPath id="clip0_5701_194">
<rect width="16" height="16" fill="white"/>
</clipPath>
</defs>
</svg>
